<?xml version="1.0" encoding="iso-8859-1"?>
<!-- Generator: Adobe Illustrator 19.0.0, SVG Export Plug-In . SVG Version: 6.00 Build 0)  -->
<svg version="1.1" id="Layer_1" xmlns="http://www.w3.org/2000/svg" xmlns:xlink="http://www.w3.org/1999/xlink" x="0px" y="0px"
	 viewBox="0 0 505.173 505.173" style="enable-background:new 0 0 505.173 505.173;" xml:space="preserve">
<g transform="translate(1 13)">
	<polygon style="fill:#FFE079;" points="327.533,228.493 310.467,222.52 319.853,219.107 354.84,208.013 361.667,205.453 
		378.733,154.253 395.8,205.453 447,222.52 395.8,239.587 378.733,290.787 378.733,289.933 378.733,289.933 361.667,239.587 	"/>
	<path style="fill:#FFD0A1;" d="M71.533,120.12h51.2v-17.067h-51.2V120.12z M498.2,154.253V324.92H378.733l-6.827-2.56
		c3.413-10.24,5.973-21.333,5.973-33.28v0.853l17.067-51.2l51.2-17.067l-51.2-17.067l-17.067-51.2l-17.067,51.2l-6.827,2.56
		c-23.04-32.427-61.44-53.76-104.107-53.76c-70.827,0-128,57.173-128,128c0,14.507,2.56,28.16,6.827,40.96l-6.827,2.56H2.413
		V154.253c0-18.773,15.36-34.133,34.133-34.133H70.68h51.2h34.133c17.067,0,25.6-17.067,25.6-17.067l8.533-17.067
		c5.973-13.653,13.653-17.067,25.6-17.067H352.28c11.947,0,19.627,4.267,25.6,17.067l8.533,17.067c0,0,8.533,17.067,25.6,17.067
		h51.2C482.84,120.12,498.2,135.48,498.2,154.253z"/>
	<path style="fill:#AAB1BA;" d="M250.733,188.387c27.307,0,52.053,11.947,69.12,30.72l-9.387,3.413l17.067,5.973
		c11.093,15.36,17.067,34.133,17.067,53.76c0,52.053-41.813,93.867-93.867,93.867s-93.867-41.813-93.867-93.867
		S198.68,188.387,250.733,188.387"/>
	<path style="fill:#ECF4F7;" d="M378.733,289.933L378.733,289.933c-0.853,11.947-2.56,22.187-5.973,33.28
		c-17.067,51.2-64.853,87.893-121.173,87.893c-56.32,0-104.107-36.693-121.173-87.893c-4.267-12.8-6.827-26.453-6.827-40.96
		c0-70.827,57.173-128,128-128c42.667,0,81.067,21.333,104.107,53.76l-34.133,11.093c-17.067-18.773-41.813-30.72-69.12-30.72
		c-52.053,0-93.867,41.813-93.867,93.867s41.813,93.867,93.867,93.867s93.867-41.813,93.867-93.867c0-20.48-6.827-38.4-17.067-53.76
		l34.133,11.093L378.733,289.933z"/>
	<path style="fill:#AAB1BA;" d="M498.2,324.92v102.4c0,18.773-15.36,34.133-34.133,34.133H37.4
		c-18.773,0-34.133-15.36-34.133-34.133v-102.4h119.467l6.827-2.56c17.067,51.2,64.853,87.893,121.173,87.893
		c56.32,0,104.107-36.693,121.173-87.893l6.827,2.56H498.2z"/>
</g>
<path style="fill:#51565F;" d="M465.067,478.72H38.4c-21.333,0-38.4-17.067-38.4-38.4v-102.4c0-2.56,1.707-4.267,4.267-4.267H89.6
	c2.56,0,4.267,1.707,4.267,4.267s-1.707,4.267-4.267,4.267H8.533v98.133c0,16.213,13.653,29.867,29.867,29.867h426.667
	c16.213,0,29.867-13.653,29.867-29.867v-98.133h-81.067c-2.56,0-4.267-1.707-4.267-4.267s1.707-4.267,4.267-4.267H499.2
	c2.56,0,4.267,1.707,4.267,4.267v102.4C503.467,461.653,486.4,478.72,465.067,478.72z M251.733,427.52
	c-72.533,0-132.267-59.733-132.267-132.267S179.2,162.987,251.733,162.987c29.013,0,56.32,9.387,79.36,26.453
	c1.707,1.707,2.56,4.267,0.853,5.973c-1.707,1.707-4.267,2.56-5.973,0.853c-21.333-16.213-46.933-24.747-74.24-24.747
	C183.467,171.52,128,226.987,128,295.254s55.467,123.733,123.733,123.733c52.053,0,98.987-33.28,116.907-82.773
	c0.853-2.56,3.413-3.413,5.12-2.56c2.56,0.853,3.413,3.413,2.56,5.12C357.547,391.68,308.053,427.52,251.733,427.52z
	 M251.733,393.387c-53.76,0-98.133-44.373-98.133-98.133s44.373-98.133,98.133-98.133c15.36,0,29.013,3.413,42.667,9.387
	c1.707,0.853,3.413,3.413,1.707,5.973c-0.853,1.707-3.413,3.413-5.973,1.707c-11.947-5.973-25.6-8.533-39.253-8.533
	c-49.493,0-89.6,40.107-89.6,89.6s40.107,89.6,89.6,89.6s89.6-40.107,89.6-89.6c0-5.12,0-10.24-0.853-15.36
	c0-2.56,0.853-4.267,3.413-5.12c2.56,0,4.267,0.853,5.12,3.413c0.853,5.12,1.707,11.093,1.707,16.213
	C349.867,349.013,305.493,393.387,251.733,393.387z M499.2,308.053c-2.56,0-4.267-1.707-4.267-4.267V167.253
	c0-16.213-13.653-29.867-29.867-29.867h-51.2c-19.627,0-29.013-18.773-29.013-19.627l-8.533-17.067
	c-5.973-12.8-11.947-14.507-22.187-14.507H217.6c-10.24,0-16.213,2.56-21.333,14.507l-8.533,17.067
	c0,0.853-10.24,19.627-29.013,19.627h-34.133c-2.56,0-4.267-1.707-4.267-4.267v-12.8H77.653v12.8c0,2.56-1.707,4.267-4.267,4.267
	H39.253c-16.213,0-29.867,13.653-29.867,29.867v136.533c0,2.56-1.707,4.267-4.267,4.267s-4.267-1.707-4.267-4.267V167.253
	c0-21.333,17.067-38.4,38.4-38.4H69.12v-12.8c0-2.56,1.707-4.267,4.267-4.267h51.2c2.56,0,4.267,1.707,4.267,4.267v12.8h29.867
	c14.507,0,21.333-14.507,22.187-14.507l8.533-17.067c6.827-16.213,16.213-19.627,29.013-19.627h136.533
	c14.507,0,23.04,5.973,29.867,19.627l8.533,17.067c0,0,7.68,14.507,22.187,14.507h51.2c21.333,0,38.4,17.067,38.4,38.4v136.533
	C503.467,306.347,501.76,308.053,499.2,308.053z M379.733,308.053c-1.707,0-3.413-0.853-4.267-2.56L359.253,256l-49.493-16.213
	c-1.707-0.853-2.56-2.56-2.56-4.267s0.853-3.413,2.56-4.267l49.493-16.213l16.213-49.493c0.853-3.413,6.827-3.413,7.68,0
	l16.213,49.493l49.493,16.213c1.707,0.853,2.56,2.56,2.56,4.267s-0.853,3.413-2.56,4.267L399.36,256l-16.213,49.493
	C383.147,307.2,381.44,308.053,379.733,308.053z M325.12,235.52l39.253,12.8c0.853,0,2.56,1.707,2.56,2.56l12.8,39.253l12.8-39.253
	c0-0.853,1.707-2.56,2.56-2.56l39.253-12.8l-39.253-12.8c-0.853,0-2.56-1.707-2.56-2.56l-12.8-39.253l-12.8,39.253
	c0,0.853-1.707,2.56-2.56,2.56L325.12,235.52z M294.4,299.52c-2.56,0-4.267-1.707-4.267-4.267c0-21.333-17.067-38.4-38.4-38.4
	c-2.56,0-4.267-1.707-4.267-4.267s1.707-4.267,4.267-4.267c25.6,0,46.933,21.333,46.933,46.933
	C298.667,297.813,296.96,299.52,294.4,299.52z M345.6,120.32H226.133c-2.56,0-4.267-1.707-4.267-4.267s1.707-4.267,4.267-4.267
	H345.6c2.56,0,4.267,1.707,4.267,4.267S348.16,120.32,345.6,120.32z M132.267,78.507c-0.853,0-1.707,0-1.707-0.853
	c-1.707-0.853-2.56-2.56-2.56-3.413c0-0.853,0-1.707,0.853-2.56l17.067-29.867c0.853-1.707,3.413-2.56,5.973-1.707
	c1.707,0.853,2.56,2.56,2.56,3.413s0,1.707-0.853,2.56l-17.067,29.867C134.827,77.653,133.973,78.507,132.267,78.507z M64,78.507
	c-1.707,0-2.56-0.853-3.413-2.56L43.52,46.08c0-0.853-0.853-1.707-0.853-2.56c0-1.707,0.853-2.56,2.56-3.413
	c1.707-0.853,4.267-0.853,5.973,1.707L68.267,71.68c0,0.853,0.853,1.707,0.853,2.56c0,1.707-0.853,2.56-2.56,3.413
	C65.707,78.507,64.853,78.507,64,78.507z M98.133,69.12c-2.56,0-4.267-1.707-4.267-4.267V30.72c0-2.56,1.707-4.267,4.267-4.267
	s4.267,1.707,4.267,4.267v34.133C102.4,67.413,100.693,69.12,98.133,69.12z"/>
<g>
</g>
<g>
</g>
<g>
</g>
<g>
</g>
<g>
</g>
<g>
</g>
<g>
</g>
<g>
</g>
<g>
</g>
<g>
</g>
<g>
</g>
<g>
</g>
<g>
</g>
<g>
</g>
<g>
</g>
</svg>
