<?xml version="1.0" encoding="iso-8859-1"?>
<!-- Generator: Adobe Illustrator 18.0.0, SVG Export Plug-In . SVG Version: 6.00 Build 0)  -->
<!DOCTYPE svg PUBLIC "-//W3C//DTD SVG 1.1//EN" "http://www.w3.org/Graphics/SVG/1.1/DTD/svg11.dtd">
<svg version="1.1" id="Capa_1" xmlns="http://www.w3.org/2000/svg" xmlns:xlink="http://www.w3.org/1999/xlink" x="0px" y="0px"
	 viewBox="0 0 485.001 485.001" style="enable-background:new 0 0 485.001 485.001;" xml:space="preserve">
<g>
	<path d="M67.738,291.075h180.841l-14.82-13.729c-4.699-4.392-7.483-10.591-7.609-17.086l0,0c0-0.268,0.063-0.521,0.063-0.781
		H83.558V59.362h305.43v200.117h-34.361l29.296,31.597h20.865c8.716,0,15.806-7.071,15.806-15.803V43.559
		c0-8.725-7.09-15.795-15.806-15.795H67.738c-8.715,0-15.787,7.071-15.787,15.795v231.714
		C51.951,284.004,59.023,291.075,67.738,291.075z"/>
	<path d="M447.357,359.541h1.49c13.08,0,23.694-10.607,23.694-23.698c0-13.089-10.614-23.696-23.694-23.696h-45.399L447.357,359.541
		z"/>
	<path d="M23.699,312.146C10.601,312.146,0,322.753,0,335.843c0,13.091,10.601,23.698,23.699,23.698h298.784l-51.156-47.395H23.699z
		"/>
	<path d="M193.387,132.673c-0.366,0-0.916,0.364-1.739,1.195c-15.173,15.186-26.373,65.45,11.024,96.456
		c8.477,7.031,18.729,10.844,28.76,10.844c9.506,0,18.823-3.44,26.229-10.844c21.118-21.118,18.14-43.511,0-54.994
		c-5.49-3.481-11.012-4.43-16.389-4.43c-6.502,0-12.847,1.385-18.827,1.385c-3.607,0-7.054-0.499-10.343-2.072
		C186.741,158.15,196.375,132.673,193.387,132.673z"/>
	<path d="M478.505,416.408L300.073,224.366c-3.236-3.482-7.749-5.498-12.501-5.587c-4.753-0.089-9.345,1.754-12.706,5.115
		c-7.635,7.635-15.273,15.268-22.91,22.901c-3.361,3.359-5.212,7.94-5.128,12.691c0.084,4.751,2.098,9.261,5.573,12.502
		l191.761,178.764c4.509,4.177,10.361,6.486,16.515,6.486c6.488,0,12.592-2.53,17.184-7.135
		C487.125,440.834,487.411,426.028,478.505,416.408z M463.294,437.49c-2.756,2.632-7.085,2.661-9.878,0.068L282.871,279.172
		l11.17-11.176l1.694-1.692l11.184-11.183l158.327,170.688c2.678,2.888,2.542,7.391-0.307,10.111L463.294,437.49z"/>
</g>
<g>
</g>
<g>
</g>
<g>
</g>
<g>
</g>
<g>
</g>
<g>
</g>
<g>
</g>
<g>
</g>
<g>
</g>
<g>
</g>
<g>
</g>
<g>
</g>
<g>
</g>
<g>
</g>
<g>
</g>
</svg>
