<?xml version="1.0" encoding="iso-8859-1"?>
<!-- Generator: Adobe Illustrator 19.0.0, SVG Export Plug-In . SVG Version: 6.00 Build 0)  -->
<svg version="1.1" id="Layer_1" xmlns="http://www.w3.org/2000/svg" xmlns:xlink="http://www.w3.org/1999/xlink" x="0px" y="0px"
	 viewBox="0 0 511.874 511.874" style="enable-background:new 0 0 511.874 511.874;" xml:space="preserve">
<path style="fill:#F0EDE0;" d="M87.393,239.165c0.883,0,1.766-0.883,2.648-0.883c1.766-0.883,3.531-1.766,5.297-1.766
	c1.766-0.883,2.648-0.883,4.414-1.766c0.883,0,1.766-0.883,3.531-0.883c1.766-0.883,4.414-0.883,6.179-1.766
	c0.883,0,1.766,0,1.766-0.883c2.648-0.883,5.297-0.883,7.062-0.883c0.883,0,0.883,0,1.766,0c2.648,0,5.297,0,7.062,0
	c0.883,0,0.883,0,1.766,0c2.648,0,5.297,0,7.062,0.883h0.883c2.648,0.883,5.297,0.883,7.062,2.648c0,0,0,0,0.883,0
	c2.648,0.883,4.414,2.648,7.062,4.414c7.945,6.179,16.772,10.593,26.483,13.241s19.421,4.414,29.131,4.414h34.428
	c14.124,0,27.366,4.414,38.841,11.476c7.062,4.414,12.359,10.593,17.655,17.655c6.179,8.828-27.366,20.303-35.31,33.545
	c22.069-0.883,97.103,6.179,108.579,0l76.8-55.614V61.73H79.448v181.848C82.097,241.813,84.745,240.93,87.393,239.165"/>
<g>
	<path style="fill:#D6D3C8;" d="M79.448,61.73l165.959,147.421c10.593,9.71,28.248,9.71,39.724,0L450.207,61.73H79.448z"/>
	<path style="fill:#D6D3C8;" d="M176.552,255.937c-2.648,0-5.297-0.883-7.062-3.531c-3.531-3.531-2.648-9.71,0.883-12.359
		l68.855-60.028c3.531-3.531,9.71-2.648,12.359,0.883c3.531,3.531,2.648,9.71-0.883,12.359l-68.855,60.028
		C180.966,255.054,178.317,255.937,176.552,255.937"/>
	<path style="fill:#D6D3C8;" d="M408.717,293.896c-1.766,0-3.531-0.883-5.297-1.766l-128.883-102.4
		c-3.531-2.648-4.414-8.828-1.766-12.359c2.648-3.531,8.828-4.414,12.359-1.766l128.883,102.4c3.531,2.648,4.414,8.828,1.766,12.359
		C414.014,293.013,411.366,293.896,408.717,293.896"/>
</g>
<path style="fill:#FDC794;" d="M505.821,284.185c7.062-5.297,7.945-15.89,2.648-22.952c-11.476-15.007-20.303-19.421-58.262,0.883
	l-76.8,46.786c-23.835,12.359-84.745,8.828-111.228,8.828c0,0,62.676,4.414,37.959-32.662
	c-12.359-18.538-33.545-29.131-56.497-29.131h-34.428c-20.303,0-39.724-6.179-55.614-17.655
	c-37.959-29.131-109.462,26.483-109.462,26.483v158.897h123.586c17.655,0,35.31-1.766,52.966-4.414l114.759-17.655
	c3.531,0,7.945-0.883,11.476-0.883l0,0c9.71-0.883,17.655-6.179,24.717-12.359L505.821,284.185z"/>
<polygon style="fill:#2872C9;" points="0,450.144 44.138,450.144 44.138,238.282 0,238.282 "/>
<path style="fill:#F9A671;" d="M141.241,353.04c-5.297,0-8.828-3.531-8.828-8.828c0-22.069,16.772-35.31,44.138-35.31h85.628
	c5.297,0,8.828,3.531,8.828,8.828c0,5.297-3.531,8.828-8.828,8.828h-85.628c-26.483,0-26.483,13.241-26.483,17.655
	C150.069,349.509,146.538,353.04,141.241,353.04z"/>
<g>
</g>
<g>
</g>
<g>
</g>
<g>
</g>
<g>
</g>
<g>
</g>
<g>
</g>
<g>
</g>
<g>
</g>
<g>
</g>
<g>
</g>
<g>
</g>
<g>
</g>
<g>
</g>
<g>
</g>
</svg>
