<?xml version="1.0" encoding="iso-8859-1"?>
<!-- Generator: Adobe Illustrator 19.0.0, SVG Export Plug-In . SVG Version: 6.00 Build 0)  -->
<svg version="1.1" id="Layer_1" xmlns="http://www.w3.org/2000/svg" xmlns:xlink="http://www.w3.org/1999/xlink" x="0px" y="0px"
	 viewBox="0 0 505 505" style="enable-background:new 0 0 505 505;" xml:space="preserve">
<circle style="fill:#90DFAA;" cx="252.5" cy="252.5" r="252.5"/>
<g>
	<polygon style="fill:#324A5E;" points="265.3,90.9 339.3,435.7 355.5,435.7 281.5,90.9 	"/>
	<polygon style="fill:#324A5E;" points="223.5,90.9 149.5,435.7 165.7,435.7 239.7,90.9 	"/>
</g>
<path style="fill:#FFFFFF;" d="M416.3,351.1H88.7c-2.6,0-4.8-2.1-4.8-4.8V114.2c0-2.6,2.1-4.8,4.8-4.8h327.7c2.6,0,4.8,2.1,4.8,4.8
	v232.1C421.1,349,419,351.1,416.3,351.1z"/>
<rect x="107.5" y="136.1" style="fill:#324A5E;" width="289.9" height="188.3"/>
<path style="fill:#FFD05B;" d="M257.7,225.1l6.4-54c11.7,1.4,23.1,6.6,32.1,15.6c19.6,19.6,21.1,50.6,4.4,71.9L257.7,225.1z"/>
<path style="fill:#54C0EB;" d="M223.5,281.5l29-46l42.9,33.4c-1.3,1.7-2.8,3.4-4.4,5C272.7,292.2,244.5,294.8,223.5,281.5z"/>
<path style="fill:#FF7058;" d="M208.9,268.7c-9.1-9.1-14.3-20.6-15.6-32.5l54.1-5.9l-29,46C215,274.2,211.8,271.7,208.9,268.7z"/>
<path style="fill:#4CDBC4;" d="M193.2,231c-1.7-15.8,3.5-32.3,15.6-44.4c12.2-12.2,28.9-17.4,44.8-15.5l-6.4,54L193.2,231z"/>
<g>
</g>
<g>
</g>
<g>
</g>
<g>
</g>
<g>
</g>
<g>
</g>
<g>
</g>
<g>
</g>
<g>
</g>
<g>
</g>
<g>
</g>
<g>
</g>
<g>
</g>
<g>
</g>
<g>
</g>
</svg>
