<?xml version="1.0" encoding="iso-8859-1"?>
<!-- Generator: Adobe Illustrator 19.0.0, SVG Export Plug-In . SVG Version: 6.00 Build 0)  -->
<svg version="1.1" id="Layer_1" xmlns="http://www.w3.org/2000/svg" xmlns:xlink="http://www.w3.org/1999/xlink" x="0px" y="0px"
	 viewBox="0 0 512.001 512.001" style="enable-background:new 0 0 512.001 512.001;" xml:space="preserve">
<path style="fill:#FFB082;" d="M182.694,8.993h-21.787v222.709h21.787c5.174,0,9.379-4.194,9.379-9.379V18.362
	C192.073,13.187,187.868,8.993,182.694,8.993z"/>
<path style="fill:#FFCD9C;" d="M160.906,8.993H17.546c-5.174,0-9.379,4.194-9.379,9.369v203.961c0,5.185,4.205,9.379,9.379,9.379
	h60.427l22.147,44.283l22.147-44.283h38.64c5.174,0,9.379-4.194,9.379-9.379V18.362C170.286,13.187,166.081,8.993,160.906,8.993z"/>
<g>
	<circle style="fill:#27467A;" cx="100.123" cy="72.755" r="32.681"/>
	<path style="fill:#27467A;" d="M100.12,139.75c-32.734,0-59.27,26.536-59.27,59.27h118.539
		C159.39,166.286,132.854,139.75,100.12,139.75z"/>
</g>
<path style="fill:#FFB082;" d="M494.454,8.99h-21.787v222.709h21.787c5.174,0,9.379-4.194,9.379-9.379V18.36
	C503.833,13.184,499.628,8.99,494.454,8.99z"/>
<path style="fill:#FFCD9C;" d="M472.666,8.99h-143.36c-5.174,0-9.379,4.194-9.379,9.369V222.32c0,5.185,4.205,9.379,9.379,9.379
	h60.427l22.147,44.283l22.147-44.283h38.64c5.174,0,9.379-4.194,9.379-9.379V18.36C482.046,13.184,477.841,8.99,472.666,8.99z"/>
<g>
	<circle style="fill:#27467A;" cx="411.877" cy="72.752" r="32.681"/>
	<path style="fill:#27467A;" d="M411.88,139.748c-32.733,0-59.27,26.536-59.27,59.269h118.539
		C471.149,166.284,444.613,139.748,411.88,139.748z"/>
</g>
<path style="fill:#FFBE35;" d="M338.574,139.611h-21.787V362.32h21.787c5.174,0,9.379-4.194,9.379-9.379V148.98
	C347.953,143.805,343.748,139.611,338.574,139.611z"/>
<path style="fill:#FFCD60;" d="M316.786,139.611h-143.36c-5.174,0-9.379,4.194-9.379,9.369v203.961c0,5.185,4.205,9.379,9.379,9.379
	h60.427L256,406.603l22.147-44.283h38.64c5.174,0,9.379-4.194,9.379-9.379V148.979C326.166,143.805,321.961,139.611,316.786,139.611
	z"/>
<g>
	<circle style="fill:#111449;" cx="256" cy="204.463" r="32.681"/>
	<path style="fill:#111449;" d="M256,270.368c-32.733,0-59.27,26.536-59.27,59.269h118.539
		C315.27,296.904,288.733,270.368,256,270.368z"/>
</g>
<polygon style="fill:#367596;" points="503.83,437.649 503.83,503.011 471.149,503.011 449.362,470.33 471.149,437.649 "/>
<polygon style="fill:#5195AF;" points="471.149,437.649 471.149,503.011 326.809,503.011 305.021,470.33 326.809,437.649 "/>
<rect x="8.17" y="437.652" style="fill:#27467A;" width="318.638" height="65.362"/>
<path d="M17.544,239.053h55.385l19.883,39.768c1.383,2.767,4.213,4.515,7.307,4.515c3.095,0,5.924-1.748,7.307-4.515l19.884-39.768
	h4.057c4.512,0,8.17-3.657,8.17-8.17s-3.658-8.17-8.17-8.17h-9.106c-3.095,0-5.924,1.747-7.307,4.515l-14.835,29.669l-14.834-29.668
	c-1.383-2.767-4.213-4.515-7.307-4.515H17.544c-0.663,0-1.204-0.539-1.204-1.204V17.545c0-0.663,0.54-1.204,1.204-1.204h165.152
	c0.665,0,1.205,0.54,1.205,1.204v88.572c0,4.513,3.658,8.17,8.17,8.17c4.512,0,8.17-3.657,8.17-8.17V17.545
	c0-9.674-7.871-17.544-17.545-17.544H17.544C7.871,0.001,0,7.871,0,17.545v203.964C0,231.184,7.871,239.053,17.544,239.053z"/>
<path d="M100.121,32.681c-22.537,0-40.871,18.334-40.871,40.871s18.335,40.872,40.871,40.872s40.871-18.335,40.871-40.872
	S122.657,32.681,100.121,32.681z M100.121,98.082c-13.526,0-24.53-11.005-24.53-24.531c0-13.524,11.004-24.529,24.53-24.529
	s24.53,11.005,24.53,24.53C124.651,87.079,113.647,98.082,100.121,98.082z"/>
<path d="M100.121,147.104c9.607,0,18.967,2.679,27.065,7.745c3.827,2.394,8.866,1.234,11.26-2.592
	c2.393-3.826,1.233-8.867-2.592-11.26c-10.701-6.695-23.057-10.235-35.733-10.235c-37.188,0-67.44,30.254-67.44,67.439
	c0,4.513,3.658,8.17,8.17,8.17h90.517c4.512,0,8.17-3.657,8.17-8.17s-3.658-8.17-8.17-8.17H49.674
	C53.597,165.727,74.725,147.104,100.121,147.104z"/>
<path d="M494.457,0.001H329.304c-9.675,0-17.545,7.871-17.545,17.544v88.572c0,4.513,3.657,8.17,8.17,8.17
	c4.512,0,8.17-3.657,8.17-8.17V17.545c0-0.663,0.54-1.204,1.205-1.204h165.153c0.663,0,1.203,0.54,1.203,1.204v203.964
	c0,0.663-0.539,1.204-1.203,1.204h-60.436c-3.095,0-5.924,1.748-7.307,4.515l-14.834,29.669l-14.835-29.669
	c-1.385-2.768-4.213-4.515-7.307-4.515h-9.105c-4.513,0-8.17,3.657-8.17,8.17s3.657,8.17,8.17,8.17h4.057l19.884,39.768
	c1.385,2.768,4.213,4.515,7.307,4.515s5.924-1.748,7.307-4.515l19.884-39.768h55.385c9.674,0,17.543-7.871,17.543-17.544V17.545
	C512,7.871,504.129,0.001,494.457,0.001z"/>
<path d="M411.88,32.681c-22.537,0-40.872,18.334-40.872,40.871s18.335,40.872,40.872,40.872s40.871-18.335,40.871-40.872
	S434.416,32.681,411.88,32.681z M411.88,98.082c-13.527,0-24.531-11.005-24.531-24.531c0-13.526,11.005-24.53,24.531-24.53
	c13.526,0,24.53,11.005,24.53,24.53C436.409,87.079,425.406,98.082,411.88,98.082z"/>
<path d="M372.461,198.202c0,4.513,3.657,8.17,8.17,8.17h90.517c4.513,0,8.17-3.657,8.17-8.17c0-37.186-30.254-67.439-67.439-67.439
	c-12.677,0-25.032,3.539-35.733,10.235c-3.825,2.392-4.985,7.434-2.593,11.26c2.394,3.825,7.433,4.985,11.261,2.592
	c8.099-5.067,17.457-7.745,27.065-7.745c25.396,0,46.523,18.624,50.447,42.928h-81.694
	C376.12,190.032,372.461,193.69,372.461,198.202z"/>
<path d="M155.879,148.165V352.13c0,9.674,7.871,17.543,17.544,17.543h55.385l19.883,39.768c1.383,2.767,4.213,4.517,7.307,4.517
	c3.094,0,5.924-1.748,7.309-4.517l19.884-39.768h55.384c9.675,0,17.544-7.871,17.544-17.543V148.165
	c0-9.674-7.871-17.543-17.544-17.543H173.423C163.75,130.62,155.879,138.491,155.879,148.165z M339.78,148.165V352.13
	c0,0.663-0.54,1.203-1.204,1.203h-60.433c-3.095,0-5.924,1.747-7.307,4.517l-14.836,29.669l-14.834-29.669
	c-1.383-2.767-4.213-4.517-7.307-4.517h-60.435c-0.663,0-1.204-0.539-1.204-1.203V148.165c0-0.663,0.54-1.203,1.204-1.203h165.153
	C339.239,146.961,339.78,147.5,339.78,148.165z"/>
<path d="M256,245.043c22.536,0,40.871-18.335,40.871-40.872S278.537,163.3,256,163.3s-40.871,18.334-40.871,40.871
	S233.463,245.043,256,245.043z M256,179.642c13.526,0,24.53,11.005,24.53,24.53c0,13.527-11.005,24.531-24.53,24.531
	c-13.527,0-24.53-11.005-24.53-24.531C231.47,190.646,242.473,179.642,256,179.642z"/>
<path d="M196.73,336.993h118.539c4.513,0,8.17-3.657,8.17-8.17c0-37.186-30.254-67.439-67.439-67.439
	c-37.186,0-67.44,30.253-67.44,67.439C188.56,333.335,192.218,336.993,196.73,336.993z M256,277.723
	c25.395,0,46.523,18.624,50.447,42.928H205.554C209.476,296.347,230.604,277.723,256,277.723z"/>
<path d="M415.591,479.864c4.805,0,8.715-3.91,8.715-8.715c0-4.805-3.91-8.715-8.715-8.715c-4.805,0-8.715,3.91-8.715,8.715
	C406.877,475.955,410.786,479.864,415.591,479.864z"/>
<path d="M370.928,479.864c4.805,0,8.715-3.91,8.715-8.715c0-4.805-3.91-8.715-8.715-8.715s-8.715,3.91-8.715,8.715
	C362.213,475.955,366.122,479.864,370.928,479.864z"/>
<path d="M460.255,479.864c4.805,0,8.715-3.91,8.715-8.715c0-4.805-3.91-8.715-8.715-8.715c-4.805,0-8.715,3.91-8.715,8.715
	C451.54,475.955,455.45,479.864,460.255,479.864z"/>
<path d="M503.83,430.298H8.17c-4.512,0-8.17,3.657-8.17,8.17v65.362c0,4.513,3.658,8.17,8.17,8.17h495.66
	c4.513,0,8.17-3.657,8.17-8.17v-65.362C512,433.955,508.343,430.298,503.83,430.298z M16.34,446.639h302.298v49.021H16.34V446.639z
	 M495.66,495.66H334.979v-49.021H495.66V495.66z"/>
<g>
</g>
<g>
</g>
<g>
</g>
<g>
</g>
<g>
</g>
<g>
</g>
<g>
</g>
<g>
</g>
<g>
</g>
<g>
</g>
<g>
</g>
<g>
</g>
<g>
</g>
<g>
</g>
<g>
</g>
</svg>
